<svg width="120" height="32" fill="none" xmlns="http://www.w3.org/2000/svg"><path d="M8.16 27.236H3.692V15.983H.65v-3.664h3.043V9.712c0-3.09 1.346-5.305 5.8-5.305.942 0 2.42.192 2.42.192V8H10.36c-1.582 0-2.2.486-2.2 1.832v2.486h3.695l-.33 3.664H8.16v11.253zm10.247-15.21c-.065 0-.132.002-.198.004-4.141 0-6.036 3.149-6.036 7.618 0 5.63 2.458 7.884 6.068 7.884 2.066 0 3.424-.88 4.249-2.52v2.225h4.248V12.321H22.49v2.293c-.674-1.475-2.07-2.57-4.083-2.588zm1.08 3.525c1.74 0 2.784 1.226 2.784 3.312l.004 2.13c0 1.406-.862 3.05-2.787 3.05-2.96 0-2.881-3.23-2.881-4.305 0-3.619 1.577-4.187 2.88-4.187zm8.966 4.229c0-1.813-.085-7.744 7.56-7.744 3.07 0 4.35.986 4.35.986l-1.03 3.229s-1.279-.712-2.947-.712c-2.136 0-3.499 1.251-3.499 3.453l.003 1.58c0 2.115 1.315 3.527 3.5 3.527 1.52 0 2.92-.719 2.92-.719l1.028 3.162s-1.172.992-4.303.992c-7.28 0-7.581-5.321-7.581-7.754zm36.82-7.75c4.14 0 6.066 3.149 6.066 7.618 0 5.63-2.458 7.884-6.07 7.884-2.065 0-3.592-.879-4.417-2.52v2.225l-4.195-.001V4.86l4.454-.392v9.944c.643-1.74 2.755-2.382 4.161-2.382zm-1.25 3.52c-1.739 0-2.912 1.227-2.912 3.313l-.004 2.13c-.003 1.406.812 3.05 2.917 3.05 2.96 0 2.88-3.23 2.88-4.305 0-3.619-1.576-4.187-2.88-4.187zm-15.932-3.507c-4.697 0-7.177 2.588-7.177 7.188v.855c0 5.97 3.483 7.507 7.635 7.507 4.035 0 5.862-1.14 5.862-1.14l-.834-3.039s-2.148.924-4.494.924c-2.433 0-3.479-.626-3.747-2.989h9.43v-2.437c0-4.99-2.782-6.87-6.675-6.87zm.114 3.042c1.626 0 2.68 1.007 2.621 3.345h-5.482c.095-2.46 1.232-3.345 2.86-3.345zm32.014-3.063c-4.824 0-7.363 2.748-7.363 7.671 0 6.755 4.377 7.843 7.371 7.843 4.383 0 7.299-2.385 7.299-7.782 0-5.617-3.279-7.732-7.307-7.732zm-.06 3.541c2.12 0 2.96 1.605 2.96 3.43v1.571c0 2.212-1.175 3.492-2.969 3.492-1.677 0-2.856-1.197-2.856-3.492v-1.57c0-2.448 1.403-3.43 2.864-3.43zm16.24-3.54c-4.825 0-7.364 2.747-7.364 7.67 0 6.755 4.377 7.843 7.371 7.843 4.383 0 7.299-2.385 7.299-7.782 0-5.617-3.279-7.732-7.307-7.732zm-.061 3.54c2.12 0 2.961 1.605 2.961 3.43v1.571c0 2.212-1.176 3.492-2.97 3.492-1.677 0-2.856-1.197-2.856-3.492v-1.57c0-2.448 1.403-3.43 2.865-3.43zm9.05 11.673V4.86l4.466-.392v14.997l4.432-7.146h4.717l-4.623 7.401 4.801 7.516h-4.731l-4.596-7.298v7.298h-4.466z" fill="#3c3e4e"/></svg>