<svg width="110" height="32" fill="none" xmlns="http://www.w3.org/2000/svg"><g clip-path="url(#clip0)" fill="#3c3e4e"><path d="M17.884 28.155l-7.152-.133c-2.315-.045-4.637.047-6.907-.43C.37 26.877.127 23.381-.13 20.448A50.63 50.63 0 01.32 8.04c.376-2.294 1.855-3.663 4.142-3.812 7.721-.54 15.493-.477 23.197-.224.814.023 1.633.15 2.436.293 3.96.701 4.056 4.664 4.312 7.999.257 3.37.148 6.757-.341 10.103-.393 2.772-1.144 5.096-4.313 5.32-3.971.293-7.852.529-11.834.454 0-.017-.023-.017-.035-.017zm-4.204-7.016c2.992-1.736 5.928-3.444 8.904-5.17-2.998-1.736-5.929-3.444-8.904-5.17v10.34zm78.093 3.865c-.136.563-.256 1.006-.375 1.477h-2.8V4.659h3.266v8.05c.171-.218.257-.31.33-.408.558-.776 1.28-1.282 2.214-1.477 1.485-.294 2.754.368 3.203 1.811.29.897.478 1.857.5 2.795.046 2.41.012 4.813-.073 7.223-.034.736-.256 1.489-.535 2.18-.916 2.276-3.909 2.621-5.394.649-.091-.12-.176-.253-.336-.477zm.16-6.004v3.99c0 .65.341 1.048.984 1.197.632.15 1.144-.098 1.4-.69.108-.247.216-.506.222-.765.062-2.438.12-4.876.136-7.32 0-.455-.108-.926-.245-1.369-.256-.8-.961-1.035-1.655-.57-.524.357-.842.863-.842 1.536V19zm-8.876-7.867h3.42v15.36h-2.67c-.096-.58-.193-1.179-.306-1.88-.183.27-.29.442-.404.615-.888 1.294-2.145 1.736-3.63 1.5-1.27-.206-2.032-1.195-2.203-2.817a13.845 13.845 0 01-.073-1.455c-.012-3.594 0-7.2 0-10.794v-.54h3.459v.627c0 3.473-.012 6.94.011 10.414 0 .494.052 1.006.137 1.5.097.507.46.69.95.656.79-.063 1.337-.655 1.337-1.449V11.812c-.028-.224-.028-.431-.028-.679zm-23.544-.011h3.436v.65c0 3.456-.011 6.906.012 10.35 0 .495.045 1.007.147 1.49.131.57.461.753 1.024.679.78-.11 1.252-.656 1.258-1.455V11.145h3.42v15.348h-2.658l-.318-1.898c-.17.26-.268.409-.364.564-.888 1.317-2.134 1.8-3.653 1.564-1.218-.184-1.963-1.093-2.19-2.582a10.418 10.418 0 01-.109-1.392c-.011-3.732-.011-7.481-.011-11.213l.006-.414zm-1.764 8.2c-.012.518-.046 1.035-.074 1.553-.131 1.552-.194 3.755-1.434 4.888-.791.713-1.792.971-2.828 1.006-.46.012-.927.012-1.388-.052-2.18-.333-3.192-1.305-3.556-3.726-.416-2.795-.45-5.636.045-8.43.512-2.893 2.276-3.917 5.018-3.727 2.56.184 3.705 1.88 4.006 4.296a29.43 29.43 0 01.21 4.192zm-3.483-.53c0-.982.023-1.972-.01-2.955a10.229 10.229 0 00-.217-1.708c-.137-.65-.546-.96-1.058-.949-.501.012-.854.322-1.036.926-.063.225-.13.454-.13.679 0 1.541-.012 3.088-.023 4.629-.012 1.438-.194 2.944.255 4.319.137.42.49.65.95.65.45 0 .746-.225.911-.627.13-.31.245-.65.245-.984.04-1.322.114-2.65.114-3.98zM43.45 15.9c.302-1.489.586-2.944.9-4.405.392-1.857.83-3.714 1.217-5.578.097-.454.279-.563.705-.552.916.035 1.85.012 2.828.012a410.829 410.829 0 01-.939 3.421 2717.4 2717.4 0 00-2.907 10.478 3.26 3.26 0 00-.108.851c-.011 1.91 0 3.813 0 5.722v.621h-3.34c-.011-.172-.034-.345-.034-.518 0-1.08-.085-2.168.011-3.237.245-2.57-.563-4.934-1.217-7.326-.865-3.163-1.742-6.338-2.606-9.5-.046-.15-.063-.31-.108-.495h3.408c.717 3.49 1.44 6.981 2.19 10.506zm65.347 4.009h-5.758c.063 1.167.085 2.277.205 3.375.085.765.501 1.093 1.155 1.099.683.011 1.081-.334 1.24-1.093.052-.247.086-.495.108-.748.023-.224.035-.466.052-.788.973.052 1.923.11 2.862.15.546 1.639-.439 3.744-2.094 4.393-1.303.518-2.64.518-3.972.121-.984-.293-1.718-.926-2.048-1.898-.307-.908-.597-1.857-.66-2.806-.17-2.34-.233-4.704.119-7.05.063-.391.171-.765.291-1.144.478-1.564 1.519-2.525 3.129-2.686a9.949 9.949 0 012.646.098c1.399.247 2.145 1.265 2.469 2.6.148.626.256 1.27.279 1.908.006 1.467-.023 2.922-.023 4.469zm-3.271-2.019c0-1.156.011-2.243-.012-3.335 0-.259-.097-.53-.193-.777-.194-.483-.598-.615-1.081-.615-.484 0-.791.247-.911.69-.364 1.329-.244 2.686-.233 4.049.871-.012 1.661-.012 2.43-.012z"/><path d="M71.45 8.195h-3.386V5.423H78.17v2.755h-3.362V26.47h-3.352L71.45 8.195z"/></g><defs><clipPath id="clip0"><path fill="#fff" d="M0 0h110v32H0z"/></clipPath></defs></svg>