<svg width="123" height="32" fill="none" xmlns="http://www.w3.org/2000/svg"><path d="M13.47 1.226c-1.584.18-3.96.925-5.311 1.67C4.528 4.869 2.07 7.946.842 12.044c-.246.8-.533 2.98-.52 4 0 .898.274 3.092.438 3.616.082.248.259.842.41 1.297.245.773 1.433 3.201 1.637 3.366.041.042.26.318.465.635.505.76 1.829 2.111 2.825 2.884.765.593 2.922 1.849 3.195 1.863.068 0 .082-.525.041-1.215-.096-1.531.191-3.615.805-5.74.11-.358.192-.827.192-1.034 0-.207.054-.428.122-.497.069-.083.192-.483.26-.897a27 27 0 01.314-1.407c.136-.538.123-.745-.068-1.325-.274-.883-.287-2.318-.014-3.008.641-1.642 1.351-2.263 2.553-2.263 1.447 0 2.143 1.104 1.87 2.953-.123.842-.464 2.167-.683 2.58-.054.125-.15.47-.19.76a11.15 11.15 0 01-.233.965c-.19.538.178 1.587.67 1.987.463.372 1.433.483 2.32.276.628-.138.887-.304 1.543-.938.778-.773 1.365-1.67 1.365-2.098 0-.124.068-.29.15-.372.382-.386.587-3.394.3-4.664-.314-1.393-1.283-2.76-2.539-3.56-1.256-.814-3.85-1.048-5.447-.496-1.12.386-2.116 1.035-2.758 1.793-.573.676-1.174 1.78-1.174 2.167a.65.65 0 01-.15.4c-.082.083-.177.607-.218 1.173-.069.841-.014 1.228.232 2.056.164.565.464 1.228.641 1.476.37.497.37.69.028 2.014-.096.359-.26.69-.355.732-.86.33-2.608-1.753-3.195-3.822-.218-.787-.232-3.588-.013-4.416.095-.345.259-.814.368-1.062.11-.235.205-.47.205-.524 0-.056.273-.525.614-1.035 1.775-2.705 4.656-4.14 8.3-4.14.834 0 1.694.056 1.926.125 1.884.593 2.389.786 3.126 1.228 1.433.869 2.47 2.056 3.508 4.042.069.125.164.456.205.732.055.276.15.538.219.58.068.04.122.937.122 2 0 1.918-.136 2.69-.71 4.263-.641 1.725-2.293 3.63-3.795 4.374-.86.414-2.47.87-3.112.87-.86 0-2.553-.718-3.017-1.297-.219-.263-.423-.166-.423.206 0 .138-.055.373-.137.511-.068.124-.191.51-.26.855-.395 1.822-.955 3.298-1.815 4.678-.26.428-.041.676.669.773a9.18 9.18 0 011.051.22c.546.18 3.508.152 4.505-.027.901-.166 2.362-.58 3.017-.856 4.123-1.71 7.25-5.188 8.6-9.617.724-2.36.765-5.105.11-7.865-.218-.896-.287-1.103-.874-2.483-.846-2.015-2.757-4.374-4.696-5.823-1.665-1.242-3.304-1.959-5.857-2.58-.71-.165-3.235-.303-4.04-.207zm36.41 4.981c-.533.083-1.38.966-1.598 1.656-.232.759 0 1.573.655 2.207 1.447 1.422 3.96.083 3.645-1.959-.19-1.297-1.365-2.125-2.703-1.904zm-14.881.814c-.123.138-.123 16.778.013 16.971.069.11.655.152 1.802.138l1.707-.013.068-2.801c.055-2.277.11-2.829.273-2.925.11-.07 1.038-.138 2.061-.138 2.24 0 3.181-.166 4.205-.718 1.338-.731 2.116-1.78 2.54-3.45.259-1.048.259-1.807-.014-2.883-.246-.966-.355-1.2-.942-1.987-.724-.98-1.46-1.518-2.662-1.945-.67-.221-1.229-.263-4.847-.304-2.252-.028-4.15 0-4.204.055zm7.494 3.436c.915.29 1.366.704 1.57 1.449.26.98.069 1.89-.505 2.442-.628.593-1.187.731-3.017.731-1.201 0-1.57-.041-1.734-.22-.177-.166-.218-.566-.218-2.14 0-2.483-.014-2.47 1.884-2.47.82 0 1.61.084 2.02.208zm23.946-.814c0 .952-.068 1.849-.137 2-.095.18-.286.263-.614.263-.246 0-.478.055-.505.138-.014.069-.014.551.027 1.062.069.91.082.924.492 1.021.232.041.491.124.573.18.123.068.164 1.158.164 3.918 0 3.711.014 3.85.314 4.401.628 1.173 1.61 1.587 3.604 1.532l1.338-.041.04-1.339.042-1.352h-.341c-.52 0-1.284-.414-1.366-.745-.04-.166-.082-1.628-.082-3.27 0-2.263.041-3.022.178-3.132.095-.083.478-.166.846-.193l.683-.042v-2.07l-.751-.04c-.41-.028-.792-.125-.846-.208-.055-.096-.11-.993-.11-2V7.904h-3.55v1.739zm50.744-1.656c-.055.055-.096.924-.096 1.932 0 1.959-.013 1.987-.764 1.987-.341 0-.341.013-.3 1.062.041 1.049.054 1.076.409 1.118.191.027.423.124.492.207.082.096.163 1.766.204 3.89.041 2.043.11 3.905.164 4.126.164.607 1.01 1.38 1.816 1.642.901.303 3.194.331 3.427.041.109-.124.15-.62.122-1.338l-.041-1.159-.477-.083c-.519-.083-1.106-.358-1.256-.593-.055-.083-.11-1.587-.11-3.34 0-3.6-.081-3.366 1.106-3.366.778 0 .847-.138.778-1.393l-.041-.745-.887-.07-.887-.068-.069-1.932-.068-1.932-1.72-.041c-.942-.014-1.747.014-1.802.055zm-57.502 3.587c-.669.18-1.447.635-1.966 1.173-.628.662-.792.621-.86-.22l-.04-.552H53.4v12.142l1.72.027c1.693.042 1.734.028 1.816-.276.041-.165.082-1.918.082-3.905 0-3.932.014-4.042.82-4.815.354-.345.545-.414 1.31-.455l.887-.056.533.566c.627.663.56.028.614 5.74.014 1.518.027 2.856.04 2.994.028.193.247.221 1.776.193l1.733-.013V14.43l-.395-.787c-.683-1.366-1.734-2.014-3.345-2.097-.574-.014-1.16-.014-1.31.027zm17.065 0c-1.474.4-2.184.8-3.099 1.711-1.229 1.256-1.788 2.718-1.788 4.692.013 3.463 2.157 6.03 5.324 6.333 2.703.262 4.792-.538 6.13-2.346.19-.262.6-1.104.6-1.255 0-.056-.791-.11-1.747-.11h-1.748l-.41.427c-.477.497-1.146.814-1.76.814-.615 0-1.556-.442-1.993-.91-.328-.373-.806-1.45-.806-1.822 0-.124.997-.166 4.205-.166 2.307 0 4.26-.055 4.355-.11.205-.138.013-2.332-.287-3.132-.614-1.67-1.775-3.077-2.949-3.574a14.968 14.968 0 01-.873-.386c-.287-.152-2.717-.276-3.154-.166zm2.662 3.022c.533.373.997 1.256.928 1.752-.04.318-.068.318-2.375.36-2.662.04-2.676.027-2.252-.967.3-.69.9-1.31 1.46-1.49.642-.207 1.68-.041 2.24.345zm17.543-3.022c-1.584.428-2.69 1.132-3.55 2.222-.34.441-.614.855-.614.938 0 .07-.096.318-.218.552-.123.22-.3.91-.396 1.532-.478 2.952.832 5.712 3.29 6.954l.942.483h1.98c2.047 0 2.225-.042 3.481-.718.914-.497 2.416-2.428 2.184-2.815-.055-.069-.833-.124-1.748-.124h-1.679l-.341.4c-1.365 1.56-3.918.76-4.464-1.407-.082-.29-.082-.538-.014-.593.068-.042 2.02-.07 4.355-.056 3.331 0 4.232-.027 4.246-.165.123-1.725-.696-4.277-1.72-5.381-.574-.621-1.57-1.311-2.062-1.435-.218-.055-.464-.152-.56-.221-.19-.152-2.689-.276-3.112-.166zm2.13 2.691c.614.22 1.324.993 1.433 1.587.164.897.177.897-2.362.855-2.28-.041-2.293-.041-2.334-.359-.055-.386.423-1.338.832-1.697.588-.496 1.611-.662 2.43-.386zm9.747-2.69c-2.799.676-3.809 1.683-3.823 3.78 0 2.263 1.12 3.215 4.437 3.808 2.28.4 2.936.76 2.908 1.628-.013.621-.437 1.021-1.283 1.2-1.065.235-1.898-.027-2.567-.786l-.532-.607h-1.652c-1.338 0-1.652.042-1.652.193 0 .4.546 1.45.997 1.973.423.456.751.677 2.034 1.297.123.07.792.18 1.461.262 1.242.152 3.399.014 3.945-.262.123-.055.478-.234.778-.372.778-.373 1.516-1.214 1.789-2.015.3-.91.218-2.18-.205-3.063-.505-1.035-1.843-1.78-3.836-2.138-2.567-.456-2.608-.47-3.017-.87-.492-.51-.492-.69 0-1.241.395-.442.423-.456 1.515-.456 1.092 0 1.119.014 1.515.456.219.248.396.538.396.648 0 .166.287.207 1.707.207 1.884 0 1.829.041 1.501-.938-.6-1.739-2.143-2.622-4.709-2.718-.792-.028-1.557-.028-1.707.013zm-18.157.29c-.6.206-1.434.896-1.693 1.393-.26.497-.491.29-.56-.538l-.068-.745h-3.413l-.04 5.795c-.014 3.187 0 5.933.04 6.112.069.303.11.303 1.748.276.942-.014 1.706-.097 1.76-.18.055-.068.11-1.531.11-3.242 0-2.704.027-3.187.26-3.794.477-1.256 1.501-2 2.784-2 .355 0 .505-.07.546-.25.096-.4.11-2.262.028-2.676-.082-.331-.15-.386-.52-.373-.245.014-.682.11-.982.221zm-42.048.206c-.04.097-.054 2.815-.04 6.044l.04 5.864 1.625.069c.983.041 1.693.013 1.802-.07.15-.11.19-1.283.19-5.974.015-3.2-.026-5.892-.067-5.96-.137-.207-3.482-.18-3.55.027z" fill="#3c3e4e"/></svg>