<svg width="98" height="32" fill="none" xmlns="http://www.w3.org/2000/svg"><path d="M12.743 0h.86c2.99.066 5.931 1.28 8.043 3.432-.78.805-1.576 1.577-2.34 2.381-1.185-1.084-2.615-1.921-4.175-2.217-2.307-.492-4.793-.049-6.726 1.281-2.113 1.396-3.542 3.76-3.851 6.29-.341 2.496.357 5.123 1.966 7.06 1.543 1.89 3.9 3.072 6.337 3.154 2.274.131 4.646-.575 6.304-2.184 1.3-1.133 1.9-2.858 2.096-4.533-2.698 0-5.395.017-8.092 0v-3.383h11.357c.585 3.63-.26 7.719-2.99 10.313-1.819 1.84-4.337 2.923-6.905 3.137-2.485.246-5.053-.23-7.262-1.445-2.649-1.43-4.76-3.843-5.8-6.684-.976-2.611-.992-5.567-.082-8.194a12.49 12.49 0 014.468-5.994C7.917.952 10.306.148 12.743 0zm65.154.854h3.477v23.45c-1.154 0-2.324.016-3.477-.017.016-7.8 0-15.616 0-23.433zm-45.64 8.129c2.144-.41 4.468.049 6.239 1.346 1.608 1.15 2.73 2.956 3.07 4.927.44 2.282-.113 4.778-1.575 6.584-1.577 2.02-4.16 3.104-6.678 2.94-2.308-.132-4.55-1.297-5.915-3.202-1.543-2.102-1.917-4.992-1.072-7.455.845-2.644 3.233-4.664 5.93-5.14zm.487 3.12c-.877.23-1.69.739-2.275 1.461-1.576 1.905-1.478 5.009.26 6.782.991 1.018 2.486 1.494 3.867 1.215 1.284-.23 2.405-1.1 3.022-2.25 1.073-1.953.764-4.647-.877-6.174-1.056-.985-2.6-1.396-3.997-1.034zm16.734-3.12c2.453-.477 5.134.213 6.97 1.954 2.99 2.71 3.315 7.783.764 10.903-1.544 1.971-4.046 3.055-6.515 2.94-2.356-.066-4.68-1.248-6.077-3.202-1.576-2.151-1.917-5.107-1.024-7.62.894-2.562 3.234-4.516 5.882-4.975zm.487 3.12c-.877.23-1.69.739-2.274 1.445-1.56 1.872-1.495 4.926.178 6.716.992 1.067 2.535 1.593 3.965 1.297 1.267-.246 2.405-1.1 3.022-2.25 1.056-1.97.747-4.663-.91-6.19-1.056-.986-2.6-1.38-3.98-1.018zm14.121-2.168c1.868-1.182 4.354-1.51 6.369-.493.633.28 1.153.756 1.657 1.232.016-.443 0-.903.016-1.363 1.089.016 2.177 0 3.282.016v14.484c-.016 2.184-.568 4.5-2.128 6.092-1.706 1.758-4.322 2.3-6.678 1.938-2.518-.378-4.712-2.233-5.687-4.581.975-.477 1.999-.854 3.006-1.298.569 1.347 1.722 2.496 3.168 2.76 1.447.262 3.12-.1 4.062-1.315 1.008-1.248 1.008-2.956.959-4.483-.747.74-1.608 1.396-2.648 1.643-2.259.64-4.745-.148-6.483-1.692-1.755-1.544-2.795-3.925-2.697-6.29.048-2.676 1.543-5.254 3.802-6.65zm3.363 2.102c-.991.164-1.917.722-2.551 1.494-1.527 1.84-1.527 4.779.016 6.585.878 1.068 2.291 1.659 3.656 1.511 1.284-.131 2.47-.952 3.103-2.085 1.073-1.922.894-4.533-.552-6.208a3.974 3.974 0 00-3.672-1.297zm18.098-1.264c1.95-1.84 4.956-2.464 7.458-1.495 2.372.903 3.883 3.186 4.647 5.534-3.526 1.478-7.035 2.94-10.561 4.418.488.936 1.235 1.79 2.242 2.134 1.414.51 3.103.329 4.29-.624.47-.361.844-.837 1.202-1.297.894.608 1.787 1.199 2.68 1.806-1.266 1.922-3.395 3.268-5.686 3.482-2.535.312-5.232-.674-6.873-2.677-2.697-3.153-2.437-8.44.602-11.281zm1.739 3.037c-.552.805-.78 1.79-.764 2.76 2.356-.986 4.712-1.971 7.068-2.973-.39-.92-1.332-1.478-2.29-1.626-1.544-.279-3.153.559-4.014 1.84z" fill="#3c3e4e"/></svg>