<svg width="95" height="32" fill="none" xmlns="http://www.w3.org/2000/svg"><path d="M90.504 6.084h-4.12V.315h-9.049l-4.16 5.77H65.78l-2.472 2.472V6.084H57.54V.315H39.41v5.77H13.903L9.74.314H.676v19.78l11.537 11.537h11.538v-3.297l3.296 3.297h22.251v-3.297l3.297 3.297h10.713v-3.297l3.297 3.297h20.602l7.417-7.417v-14.01l-4.12-4.12zm-75.818 8.241h-5.77v1.649h5.77v6.592H5.62L2.324 19.27V1.964h6.593v5.768h5.769v6.593zm24.723 8.241H19.63l-3.296-3.296V7.732h6.593v8.241h1.648v-8.24h6.593v8.24h1.648v-8.24h6.593v14.833zm8.241 0h-6.593V7.732h6.593v14.834zm0-16.482h-6.593v-4.12h6.593v4.12zm14.01 8.241h-5.77v1.649h5.769v6.592h-9.065l-3.297-3.296V1.964h6.593v5.768h5.769v6.593zm14.834 0H69.9v1.649h6.593v6.592h-9.89l-3.296-3.296v-8.241l3.297-3.297h9.889v6.593zm16.482 8.241h-6.593v-8.24h-1.648v8.24h-6.593V1.964h6.593v5.768h4.945l3.296 3.297v11.537z" fill="#3c3e4e"/></svg>