<svg width="630" height="630" fill="none" xmlns="http://www.w3.org/2000/svg"><g clip-path="url(#clip0_106:43)"><path d="M875 0H-245v630H875V0z" fill="#3000FF"/><path d="M-799.697 926.862c76.722-10.067 321.999-66.279 460.329-60.402 138.33 5.878 231.325 75.673 369.653 95.668 138.328 19.996 315.708 37.789 460.317 24.305 144.609-13.484 260.136-95.279 407.336-105.208 147.202-9.929 396.552 38.031 475.862 45.637v-1288H-799.697v1288z" fill="url(#paint0_linear_106:43)"/><path d="M-799.696 809.772c60.255-10.466 245.123-59.921 361.533-62.793 116.409-2.872 212.887 32.974 336.925 45.56 124.038 12.587 273.717 33.092 407.303 29.957 133.585-3.135 283.257-46.83 394.211-48.766 110.953-1.937 159.255 31.142 271.51 37.149 112.254 6.007 335.014-.923 402.014-1.107V-361.137H-799.696V809.772z" fill="url(#paint1_linear_106:43)"/><path d="M-799.696 692.679c60.729 1.736 233.638 3.887 364.375 10.419 130.738 6.533 297.944 39.58 420.05 28.774 122.108-10.806 205.013-92.913 312.591-93.608 107.578-.695 219.703 72.802 332.877 89.439 113.173 16.638 222.231 16.225 346.166 10.387 123.937-5.837 331.197-37.843 397.437-45.411V-361.14H-799.696V692.679z" fill="#342980"/><path d="M-799.696 575.587c57.039-1.692 228.259-14.318 342.235-10.153 113.975 4.166 221.005 40.212 341.621 35.149 120.616-5.064 244.346-57.6 382.075-65.527 137.729-7.927 312.033 18.624 444.3 17.963 132.268-.66 238.76-25.686 349.305-21.925 110.54 3.762 261.64 37.078 313.96 44.493V-361.14H-799.696v936.727z" fill="#5140BC"/><path d="M-819 460.535c58.609-8.271 239.418-52.555 351.651-49.624 112.233 2.931 215.186 59.425 321.746 67.209 106.56 7.784 227.191-22.781 317.616-20.505 90.425 2.277 134.548 28.941 224.932 34.162 90.385 5.222 206.969 4.719 317.375-2.834 110.406-7.553 238.365-37.75 345.06-42.485 106.7-4.735 245.93 11.731 295.12 14.077v-819.636H-819v819.636z" fill="#7E6FDB"/><path d="M-799.696 341.405c46.255 4.599 182.958 22.576 277.534 27.596 94.575 5.02 184.296 15.95 289.919 2.524 105.623-13.426 221.803-86.32 343.817-83.083 122.013 3.238 278.221 102.951 388.264 102.507 110.044-.444 185.174-102.498 271.999-105.172 86.826-2.675 148.627 79.855 248.953 89.127 100.33 9.271 294.18-27.916 353.01-33.499V-361.14H-799.696v702.545z" fill="#B6ACE9"/><path d="M-799.696 224.316c52.755 7.924 201.318 46.521 316.528 47.546 115.211 1.025 237.848-34.364 374.735-41.397 136.887-7.033 322.275-8.597 446.589-.801 124.314 7.797 182.02 58.504 299.296 47.579 117.276-10.924 281.634-104.306 404.358-113.128 122.73-8.821 276.66 50.167 331.99 60.201v-585.455H-799.696v585.455z" fill="#E8E5F8"/><path d="M-799.696 107.225c69.438-2.092 278.654-16.006 416.626-12.556 137.973 3.45 269.33 22.382 411.209 33.259 141.879 10.877 286.597 31.762 440.067 32.003 153.47.242 329.82-21.77 480.753-30.554 150.931-8.784 354.041-18.46 424.841-22.152v-468.363H-799.696v468.363z" fill="url(#paint2_linear_106:43)"/><path d="M-799.696-9.867c38.745 5.444 147.008 24.802 232.471 32.666 85.464 7.864 181.359 11.363 280.308 14.515 98.95 3.153 217.85 4.065 313.388 4.4 95.538.334 171.901 15.593 259.838-2.393C374.246 21.334 453.247-64.121 554.094-66.204c100.848-2.083 240.738 78.37 337.3 93.028 96.562 14.658 161.666 1.036 242.076-5.079 80.4-6.115 200.28-26.344 240.33-31.612V-361.14H-799.696V-9.867z" fill="#7E6FDB"/></g><defs><linearGradient id="paint0_linear_106:43" x1="-799.697" y1="855.912" x2="1340.26" y2="1199.86" gradientUnits="userSpaceOnUse"><stop stop-color="#0500FF"/></linearGradient><linearGradient id="paint1_linear_106:43" x1="-799.696" y1="704.422" x2="1323.97" y2="1094.28" gradientUnits="userSpaceOnUse"><stop stop-color="#532BFF"/><stop offset=".091" stop-color="#302BFF"/></linearGradient><linearGradient id="paint2_linear_106:43" x1="-799.696" y1="125.436" x2="-719.996" y2="-411.434" gradientUnits="userSpaceOnUse"><stop stop-color="#4E12B0"/><stop offset="1" stop-color="#3C12A4"/></linearGradient><clipPath id="clip0_106:43"><path fill="#fff" transform="translate(-245)" d="M0 0h1120v630H0z"/></clipPath></defs></svg>